#tb 0: 1/1000
0,          0,          0,        0,      432, 5156b11cd9995d0c1638c9b0d2b0786c
0,         33,         33,        0,      432, ef78557f93fb3ea770c7d49ab60edf21
0,         66,         66,        0,      432, f31fb9bb14566e4538a45ac7bf398b2a
0,        100,        100,        0,      432, 97633875537f76ade183e975fa91b0fb
0,        133,        133,        0,      432, 602cf54f9af852175173c21abd63796f
0,        166,        166,        0,      432, 0b3741a6842cb65d6d21eda891882033
0,        200,        200,        0,      432, 44240a27a6b6d36c9661d499fb965f87
0,        233,        233,        0,      432, 9050f263f9a4767f9323ec8aa42cf7e6
0,        266,        266,        0,      432, 57fa3a8494375f588a95376bc0c3cb28
0,        300,        300,        0,      432, 084595f2a65aa10e7d3845044a0e7213
